<svg width="2584" height="2609" viewBox="0 0 2584 2609" fill="none" xmlns="http://www.w3.org/2000/svg">
<path d="M282.013 1113.44C286.729 1115.89 290.502 1117.96 290.502 1118.34C290.502 1118.53 286.921 1120.6 282.586 1122.87C278.251 1125.13 274.387 1127.31 274.01 1127.68C273.539 1128.15 277.502 1132.68 282.691 1137.86C287.881 1143.04 292.221 1147.19 292.409 1147C292.503 1146.9 294.198 1143.88 296.27 1140.49C302.202 1130.21 303.333 1130.4 312.394 1143.21C317.113 1150 317.302 1150.37 315.138 1156.31C312.033 1165.46 313.27 1180.83 317.708 1189.03C322.523 1197.79 332.617 1206.74 340.633 1209.28L346.48 1211.16L333.848 1213.81C310.187 1218.64 289.077 1229.4 274.191 1244.31C263.451 1254.88 259.308 1261.48 254.321 1275.34C246.418 1297.03 250.87 1325.6 265.027 1344.82C280.033 1365.08 309.649 1381.08 345.292 1388.22L358.305 1390.66L359.44 1396.32C361.428 1406.97 372.279 1417.99 382.746 1420.16C386.517 1420.91 390.856 1423.17 394.724 1426.27C398.214 1429.19 403.308 1431.83 406.985 1432.87C411.323 1433.99 415.379 1436.35 420.002 1440.4C433.398 1451.7 442.638 1451.88 461.957 1441.22C495.507 1422.52 517.651 1405.25 553.356 1369.49C586.33 1336.66 606.299 1311.75 621.364 1284.78C623.247 1281.38 626.448 1275.54 628.614 1271.67C635.958 1258.46 634.063 1245.83 623.401 1235C620.193 1231.79 617.739 1228.4 617.927 1227.46C618.679 1224.25 614.052 1214.36 609.617 1209.93C606.22 1206.54 604.804 1203.99 604.33 1200.13C603.382 1193.53 598.002 1184.58 592.531 1180.81C590.172 1179.21 585.362 1177.04 581.59 1175.91L574.801 1173.84L572.623 1161.87C565.334 1122 542.679 1085.62 517.78 1073.76C487.505 1059.36 453.097 1065.14 429.638 1088.44C413.999 1104.1 401.855 1127.96 397.253 1152.01C396.314 1156.72 395.373 1159.74 394.996 1158.8C389.14 1144.66 379.516 1134.86 367.633 1130.91C359.24 1128.18 344.061 1128.48 337.935 1131.59C333.977 1133.67 333.6 1133.48 325.487 1127.46C315.111 1119.92 313.507 1118.32 314.826 1117C315.297 1116.53 315.957 1116.81 316.24 1117.85C316.524 1118.88 316.713 1118.88 316.995 1117.85C317.183 1116.9 320.292 1114.54 323.873 1112.65C327.266 1110.77 330.282 1109.07 330.47 1108.88C330.659 1108.69 326.507 1104.36 321.318 1099.17C316.128 1093.99 311.506 1090.13 311.035 1090.6C310.564 1091.07 309.151 1093.62 307.833 1096.26C306.515 1099.09 304.633 1102.68 303.597 1104.28L301.713 1107.49L297.748 1099.95C295.576 1095.89 293.405 1092.03 292.933 1091.56C292.462 1091.09 287.939 1094.86 282.852 1099.96L273.619 1109.2L282.013 1113.44ZM353.889 1158.08C360.488 1157.69 368.32 1166.83 366.627 1172.68C365.311 1177.21 359.563 1181.83 354.85 1182.4C347.496 1183.35 339.664 1173.45 342.393 1166.76C343.898 1162.8 349.929 1158.27 353.889 1158.08ZM308.331 1257.67C316.247 1252.57 334.816 1246.62 348.673 1244.63C363.285 1242.45 390.911 1244.22 402.228 1247.98C411.564 1251.09 420.524 1255.51 427.976 1260.69L433.164 1264.18L428.36 1270.31C425.723 1273.71 422.802 1276.63 421.765 1276.91C420.823 1277.1 416.768 1276.07 412.995 1274.56C393.379 1267.04 353.874 1264.33 337.472 1269.25C318.809 1274.92 309.676 1290.86 314.968 1308.2C316.575 1313.38 318.179 1315.55 328.652 1325.82C340.163 1337.13 342.05 1338.63 361.385 1349.08C363.649 1350.4 363.555 1351.25 360.448 1357C356.4 1364.46 357.908 1364.27 342.254 1359.37C326.033 1354.11 316.413 1348.83 305.658 1339.23C293.77 1328.68 289.334 1321.8 286.591 1309.45C282.428 1289.84 291.368 1268.24 308.331 1257.67ZM465.666 1105.2C478.485 1100.85 487.725 1100.65 498.57 1104.32C506.586 1107.05 509.227 1108.56 516.774 1115.53C530.36 1128.15 538.667 1142.29 544.811 1163.5L547.364 1172.45L541.427 1175.94C538.034 1177.83 535.018 1179.53 534.735 1179.44C534.358 1179.44 531.149 1174.35 527.562 1168.13C522.275 1158.89 518.783 1154.46 509.348 1144.85C496.139 1131.48 491.423 1129.03 479.638 1129.89C467.288 1130.56 457.018 1139.71 453.068 1153.1C447.99 1170.45 449.995 1204.3 457.554 1226.54L461.617 1238.32L457.754 1241.06C455.681 1242.57 452.571 1245.12 450.97 1246.72L448.049 1249.65L444.274 1244.37C435.213 1230.99 430.112 1217.42 428.403 1201.01C425.65 1176.78 427.053 1161.42 433.449 1141.8C439.94 1122.09 450.114 1110.58 465.666 1105.2ZM381.733 1200.58C385.973 1196.71 390.306 1191.8 391.342 1189.63C392.471 1187.37 393.696 1185.58 394.073 1185.58C394.544 1185.48 395.301 1188.87 395.87 1192.83C396.344 1196.7 397.48 1203.3 398.426 1207.26C399.372 1211.41 399.94 1214.8 399.657 1215.08C399.375 1215.36 395.509 1214.9 390.983 1213.96C386.456 1213.02 378.819 1211.99 373.916 1211.42L365.147 1210.39L369.577 1208.98C372.216 1208.22 377.399 1204.54 381.733 1200.58ZM354.271 1291.11C355.119 1291.2 356.63 1293.84 357.763 1296.67C358.897 1299.68 360.69 1302.41 361.728 1302.89C364.651 1304.11 367.76 1300.62 366.815 1297.22C365.586 1293.36 365.677 1288.74 366.996 1287.42C367.655 1286.76 368.033 1287.32 367.751 1288.74C367.47 1290.72 367.753 1290.62 369.071 1288.55C370.483 1286.19 371.615 1286.19 375.481 1287.79C378.028 1288.83 381.612 1291.27 383.311 1293.35C385.953 1296.36 386.237 1297.59 384.636 1299.57C383.599 1300.98 381.055 1302.4 379.075 1302.87C374.645 1303.72 372.384 1305.8 372.951 1308.06C373.613 1311.17 378.989 1313.15 387.946 1313.61C393.509 1313.89 397.846 1315.02 399.262 1316.43C402.092 1319.26 400.679 1320.49 421.403 1296.15C444.387 1269.17 456.823 1256.9 493.852 1225.67L501.767 1219.06L499.313 1216.61C497.709 1215.01 496.575 1210.86 496.288 1205.11C495.334 1190.21 489.956 1185.03 486.004 1195.41C482.805 1203.89 480.637 1204.56 474.787 1198.72C470.73 1194.48 469.88 1192.87 469.971 1188.44L469.967 1183.35L476.756 1183.91C481.187 1184.19 483.921 1183.72 484.863 1182.21C486.558 1179.76 484.482 1177.49 478.069 1174.86C472.788 1172.6 472.409 1170.53 476.93 1164.68C479.567 1161.28 481.075 1160.53 485.695 1160.05C488.806 1159.77 491.729 1160.05 492.295 1160.61C492.955 1161.27 493.146 1164.67 492.866 1168.15C492.492 1172.49 493.06 1174.75 494.474 1175.41C496.832 1176.45 501.543 1172.67 500.976 1170.22C500.692 1169.37 501.822 1167.49 503.33 1165.98C505.497 1163.81 506.722 1163.52 509.08 1164.94C513.608 1167.57 517.1 1173.7 517.01 1178.51C516.919 1183.69 514.281 1185.01 507.585 1183.23C497.401 1180.6 497.878 1188.61 508.443 1195.58C511.556 1197.74 515.518 1200.57 517.31 1201.98C520.329 1204.62 520.329 1204.62 533.239 1196.03C540.307 1191.22 547.752 1186.97 549.637 1186.59C554.256 1185.55 557.841 1188 558.221 1192.52L558.695 1196.2L543.052 1206.77C515.348 1225.46 502.722 1236.03 470.501 1267.35C431.403 1305.19 413.599 1325.85 389.773 1361.22C380.072 1375.47 378.094 1376.88 372.811 1372.55C368.471 1368.97 369.411 1365.2 378.075 1351.81C388.057 1336.52 388.34 1335.86 386.17 1334.83C385.133 1334.36 381.925 1330.59 379.093 1326.44C371.07 1314.66 363.622 1314.01 366.081 1325.13C366.649 1328.15 366.84 1331.35 366.37 1332.39C364.393 1336.82 352.417 1333.16 348.358 1326.84C345.432 1322.23 345.902 1321.19 352.123 1318.54C361.736 1314.39 360.789 1308.92 350.608 1310.25C344.009 1311.2 342.406 1310.16 342.685 1305.16C342.963 1299.22 350.405 1290.26 354.271 1291.11ZM495.034 1293.36C501.82 1290.9 507.759 1289.11 508.136 1289.48C508.608 1289.95 506.915 1295.99 504.469 1303.16L500.142 1315.98L486.946 1320.52C479.688 1322.88 473.561 1324.68 473.184 1324.3C472.806 1323.92 481.274 1299.78 482.404 1298.27C482.498 1298.18 488.248 1296 495.034 1293.36ZM447.178 1346C448.781 1346.28 451.894 1348.26 454.159 1350.52C459.537 1355.89 459.634 1360.7 454.453 1365.89C449.271 1371.08 444.463 1370.99 438.991 1365.52C435.5 1362.04 434.933 1360.53 435.401 1356.67C435.963 1351.2 442.558 1345.35 447.178 1346ZM542.048 1250.43C543.556 1250.42 546.763 1251.93 549.121 1253.72C552.8 1256.45 553.367 1257.77 553.464 1261.82C553.468 1267.1 549.795 1271.92 544.517 1273.62C539.992 1274.94 538.389 1274.47 534.237 1270.32C528.859 1264.95 529.232 1258.17 534.979 1253.73C537.335 1251.94 540.539 1250.43 542.048 1250.43ZM424.202 1383.54C424.485 1383.45 424.301 1389.67 423.835 1397.12C423.091 1410.32 422.808 1410.98 418.474 1414.57C412.726 1419.19 408.766 1419.19 404.049 1414.48C399.803 1410.24 398.666 1402.32 402.153 1400.72C403.378 1400.25 403.566 1399.68 402.623 1399.49C401.303 1399.12 422.411 1383.45 424.202 1383.54ZM593.594 1216.16C596.046 1216.54 600.292 1220.97 601.709 1224.83C602.842 1228.04 600.96 1232.37 596.344 1237C595.213 1238.13 588.614 1239.08 580.601 1239.37C573.058 1239.56 567.684 1239.47 568.721 1239.19C569.569 1238.9 570.04 1238.24 569.569 1237.77C568.436 1236.64 580.681 1220.23 583.602 1218.81C585.487 1218.05 585.487 1217.68 583.884 1217.21C581.809 1216.64 590.482 1215.69 593.594 1216.16ZM562.16 1291.05C576.859 1279.15 602.019 1261.32 611.349 1256.12L615.967 1253.58L614.653 1262.25C613.433 1269.51 612.586 1271.49 609.665 1273.66C574.893 1298.3 552.092 1318.3 517.518 1354.25C490.857 1382.08 477.67 1397.55 462.507 1419.15L456.008 1428.49L446.676 1430.48L437.438 1432.37L440.168 1427.75C450.15 1410.77 471.059 1382.28 488.486 1362.19C503.275 1344.92 543.881 1305.77 562.16 1291.05Z" fill="white"/>
<path d="M2002.05 1976.5C2006.77 1978.95 2010.54 1981.02 2010.54 1981.39C2010.54 1981.58 2006.96 1983.66 2002.62 1985.93C1998.29 1988.19 1994.42 1990.36 1994.05 1990.74C1993.58 1991.21 1997.54 1995.73 2002.73 2000.92C2007.92 2006.1 2012.26 2010.24 2012.45 2010.05C2012.54 2009.96 2014.24 2006.94 2016.31 2003.55C2022.24 1993.26 2023.37 1993.45 2032.43 2006.27C2037.15 2013.05 2037.34 2013.43 2035.17 2019.37C2032.07 2028.52 2033.31 2043.89 2037.75 2052.08C2042.56 2060.85 2052.65 2069.8 2060.67 2072.34L2066.52 2074.22L2053.89 2076.87C2030.22 2081.69 2009.11 2092.46 1994.23 2107.37C1983.49 2117.93 1979.34 2124.54 1974.36 2138.4C1966.45 2160.09 1970.91 2188.65 1985.06 2207.88C2000.07 2228.14 2029.69 2244.14 2065.33 2251.28L2078.34 2253.72L2079.48 2259.38C2081.47 2270.03 2092.32 2281.05 2102.78 2283.21C2106.55 2283.96 2110.89 2286.22 2114.76 2289.33C2118.25 2292.25 2123.34 2294.89 2127.02 2295.92C2131.36 2297.05 2135.42 2299.4 2140.04 2303.46C2153.44 2314.76 2162.67 2314.94 2181.99 2304.27C2215.54 2285.58 2237.69 2268.31 2273.39 2232.55C2306.37 2199.72 2326.34 2174.81 2341.4 2147.84C2343.28 2144.44 2346.49 2138.59 2348.65 2134.73C2355.99 2121.52 2354.1 2108.89 2343.44 2098.05C2340.23 2094.85 2337.78 2091.46 2337.96 2090.52C2338.72 2087.31 2334.09 2077.41 2329.65 2072.99C2326.26 2069.59 2324.84 2067.05 2324.37 2063.18C2323.42 2056.59 2318.04 2047.63 2312.57 2043.87C2310.21 2042.26 2305.4 2040.1 2301.63 2038.97L2294.84 2036.9L2292.66 2024.93C2285.37 1985.05 2262.72 1948.68 2237.82 1936.82C2207.54 1922.42 2173.13 1928.19 2149.68 1951.5C2134.04 1967.16 2121.89 1991.02 2117.29 2015.07C2116.35 2019.78 2115.41 2022.8 2115.03 2021.86C2109.18 2007.72 2099.55 1997.92 2087.67 1993.97C2079.28 1991.24 2064.1 1991.54 2057.97 1994.65C2054.01 1996.73 2053.64 1996.54 2045.52 1990.51C2035.15 1982.98 2033.54 1981.38 2034.86 1980.06C2035.33 1979.58 2035.99 1979.87 2036.28 1980.9C2036.56 1981.94 2036.75 1981.94 2037.03 1980.9C2037.22 1979.96 2040.33 1977.6 2043.91 1975.71C2047.3 1973.82 2050.32 1972.12 2050.51 1971.94C2050.7 1971.75 2046.54 1967.41 2041.35 1962.23C2036.17 1957.05 2031.54 1953.19 2031.07 1953.66C2030.6 1954.13 2029.19 1956.68 2027.87 1959.32C2026.55 1962.15 2024.67 1965.73 2023.63 1967.34L2021.75 1970.54L2017.79 1963C2015.61 1958.95 2013.44 1955.09 2012.97 1954.62C2012.5 1954.15 2007.98 1957.92 2002.89 1963.01L1993.66 1972.26L2002.05 1976.5ZM2073.93 2021.13C2080.53 2020.75 2088.36 2029.89 2086.66 2035.74C2085.35 2040.26 2079.6 2044.89 2074.89 2045.46C2067.53 2046.41 2059.7 2036.51 2062.43 2029.82C2063.94 2025.85 2069.97 2021.32 2073.93 2021.13ZM2028.37 2120.73C2036.28 2115.63 2054.85 2109.68 2068.71 2107.69C2083.32 2105.51 2110.95 2107.28 2122.26 2111.04C2131.6 2114.15 2140.56 2118.57 2148.01 2123.75L2153.2 2127.23L2148.4 2133.37C2145.76 2136.76 2142.84 2139.69 2141.8 2139.97C2140.86 2140.16 2136.8 2139.13 2133.03 2137.62C2113.42 2130.09 2073.91 2127.39 2057.51 2132.3C2038.85 2137.97 2029.71 2153.91 2035.01 2171.26C2036.61 2176.44 2038.22 2178.61 2048.69 2188.88C2060.2 2200.18 2062.09 2201.69 2081.42 2212.14C2083.69 2213.46 2083.59 2214.31 2080.49 2220.06C2076.44 2227.51 2077.95 2227.32 2062.29 2222.43C2046.07 2217.16 2036.45 2211.89 2025.69 2202.28C2013.81 2191.73 2009.37 2184.85 2006.63 2172.5C2002.46 2152.9 2011.41 2131.3 2028.37 2120.73ZM2185.7 1968.25C2198.52 1963.91 2207.76 1963.71 2218.61 1967.38C2226.62 1970.11 2229.26 1971.61 2236.81 1978.59C2250.4 1991.21 2258.7 2005.34 2264.85 2026.55L2267.4 2035.51L2261.46 2039C2258.07 2040.89 2255.06 2042.59 2254.77 2042.49C2254.4 2042.49 2251.19 2037.41 2247.6 2031.19C2242.31 2021.95 2238.82 2017.52 2229.39 2007.91C2216.18 1994.53 2211.46 1992.09 2199.68 1992.94C2187.33 1993.61 2177.06 2002.77 2173.11 2016.16C2168.03 2033.51 2170.03 2067.35 2177.59 2089.6L2181.65 2101.38L2177.79 2104.12C2175.72 2105.63 2172.61 2108.18 2171.01 2109.78L2168.09 2112.7L2164.31 2107.43C2155.25 2094.05 2150.15 2080.47 2148.44 2064.07C2145.69 2039.84 2147.09 2024.47 2153.49 2004.86C2159.98 1985.15 2170.15 1973.64 2185.7 1968.25ZM2101.77 2063.63C2106.01 2059.76 2110.34 2054.86 2111.38 2052.69C2112.51 2050.43 2113.73 2048.63 2114.11 2048.63C2114.58 2048.54 2115.34 2051.93 2115.91 2055.89C2116.38 2059.76 2117.52 2066.36 2118.46 2070.31C2119.41 2074.46 2119.98 2077.86 2119.69 2078.14C2119.41 2078.42 2115.55 2077.95 2111.02 2077.01C2106.49 2076.07 2098.86 2075.04 2093.95 2074.48L2085.18 2073.45L2089.61 2072.03C2092.25 2071.28 2097.44 2067.6 2101.77 2063.63ZM2074.31 2154.16C2075.16 2154.26 2076.67 2156.9 2077.8 2159.72C2078.93 2162.74 2080.73 2165.47 2081.76 2165.94C2084.69 2167.17 2087.8 2163.68 2086.85 2160.28C2085.62 2156.42 2085.71 2151.8 2087.03 2150.48C2087.69 2149.82 2088.07 2150.38 2087.79 2151.8C2087.51 2153.78 2087.79 2153.68 2089.11 2151.61C2090.52 2149.25 2091.65 2149.25 2095.52 2150.85C2098.07 2151.88 2101.65 2154.33 2103.35 2156.4C2105.99 2159.42 2106.27 2160.64 2104.67 2162.63C2103.64 2164.04 2101.09 2165.46 2099.11 2165.93C2094.68 2166.78 2092.42 2168.86 2092.99 2171.12C2093.65 2174.23 2099.03 2176.21 2107.98 2176.67C2113.55 2176.95 2117.88 2178.08 2119.3 2179.49C2122.13 2182.32 2120.72 2183.54 2141.44 2159.2C2164.42 2132.22 2176.86 2119.96 2213.89 2088.72L2221.8 2082.12L2219.35 2079.67C2217.75 2078.07 2216.61 2073.92 2216.33 2068.17C2215.37 2053.27 2209.99 2048.09 2206.04 2058.46C2202.84 2066.95 2200.67 2067.61 2194.82 2061.77C2190.77 2057.53 2189.92 2055.93 2190.01 2051.5L2190 2046.41L2196.79 2046.97C2201.22 2047.25 2203.96 2046.77 2204.9 2045.27C2206.6 2042.81 2204.52 2040.55 2198.11 2037.92C2192.82 2035.66 2192.45 2033.58 2196.97 2027.74C2199.6 2024.34 2201.11 2023.58 2205.73 2023.11C2208.84 2022.82 2211.77 2023.1 2212.33 2023.67C2212.99 2024.33 2213.18 2027.72 2212.9 2031.21C2212.53 2035.55 2213.1 2037.81 2214.51 2038.47C2216.87 2039.51 2221.58 2035.73 2221.01 2033.28C2220.73 2032.43 2221.86 2030.55 2223.37 2029.04C2225.53 2026.87 2226.76 2026.58 2229.12 2027.99C2233.64 2030.63 2237.14 2036.76 2237.05 2041.56C2236.96 2046.75 2234.32 2048.07 2227.62 2046.29C2217.44 2043.65 2217.92 2051.67 2228.48 2058.64C2231.59 2060.8 2235.56 2063.63 2237.35 2065.04C2240.37 2067.68 2240.37 2067.68 2253.28 2059.09C2260.34 2054.28 2267.79 2050.03 2269.67 2049.65C2274.29 2048.61 2277.88 2051.06 2278.26 2055.58L2278.73 2059.26L2263.09 2069.83C2235.39 2088.52 2222.76 2099.09 2190.54 2130.41C2151.44 2168.25 2133.64 2188.91 2109.81 2224.28C2100.11 2238.53 2098.13 2239.94 2092.85 2235.61C2088.51 2232.03 2089.45 2228.26 2098.11 2214.86C2108.09 2199.58 2108.38 2198.92 2106.21 2197.89C2105.17 2197.42 2101.96 2193.65 2099.13 2189.5C2091.11 2177.72 2083.66 2177.07 2086.12 2188.19C2086.69 2191.21 2086.88 2194.41 2086.41 2195.45C2084.43 2199.88 2072.45 2196.21 2068.39 2189.9C2065.47 2185.28 2065.94 2184.25 2072.16 2181.6C2081.77 2177.45 2080.83 2171.98 2070.65 2173.31C2064.05 2174.25 2062.44 2173.22 2062.72 2168.22C2063 2162.28 2070.44 2153.32 2074.31 2154.16ZM2215.07 2156.42C2221.86 2153.96 2227.8 2152.16 2228.17 2152.54C2228.64 2153.01 2226.95 2159.05 2224.51 2166.21L2220.18 2179.04L2206.98 2183.57C2199.73 2185.94 2193.6 2187.73 2193.22 2187.36C2192.84 2186.98 2201.31 2162.84 2202.44 2161.33C2202.54 2161.23 2208.28 2159.06 2215.07 2156.42ZM2167.22 2209.06C2168.82 2209.34 2171.93 2211.32 2174.2 2213.58C2179.57 2218.95 2179.67 2223.76 2174.49 2228.95C2169.31 2234.14 2164.5 2234.05 2159.03 2228.58C2155.54 2225.1 2154.97 2223.59 2155.44 2219.72C2156 2214.25 2162.6 2208.4 2167.22 2209.06ZM2262.09 2113.48C2263.59 2113.48 2266.8 2114.99 2269.16 2116.78C2272.84 2119.51 2273.4 2120.83 2273.5 2124.88C2273.51 2130.16 2269.83 2134.97 2264.55 2136.67C2260.03 2138 2258.43 2137.53 2254.27 2133.38C2248.9 2128.01 2249.27 2121.22 2255.02 2116.79C2257.37 2114.99 2260.58 2113.48 2262.09 2113.48ZM2144.24 2246.6C2144.52 2246.51 2144.34 2252.73 2143.87 2260.18C2143.13 2273.38 2142.85 2274.04 2138.51 2277.62C2132.76 2282.25 2128.8 2282.25 2124.09 2277.54C2119.84 2273.3 2118.7 2265.38 2122.19 2263.78C2123.42 2263.3 2123.6 2262.74 2122.66 2262.55C2121.34 2262.17 2142.45 2246.51 2144.24 2246.6ZM2313.63 2079.22C2316.08 2079.6 2320.33 2084.02 2321.75 2087.89C2322.88 2091.09 2321 2095.43 2316.38 2100.05C2315.25 2101.19 2308.65 2102.13 2300.64 2102.42C2293.1 2102.62 2287.72 2102.53 2288.76 2102.24C2289.61 2101.96 2290.08 2101.3 2289.61 2100.83C2288.47 2099.7 2300.72 2083.28 2303.64 2081.87C2305.52 2081.11 2305.52 2080.73 2303.92 2080.26C2301.85 2079.7 2310.52 2078.75 2313.63 2079.22ZM2282.2 2154.1C2296.9 2142.21 2322.06 2124.37 2331.39 2119.18L2336 2116.63L2334.69 2125.31C2333.47 2132.57 2332.62 2134.55 2329.7 2136.72C2294.93 2161.35 2272.13 2181.36 2237.56 2217.3C2210.89 2245.14 2197.71 2260.61 2182.54 2282.21L2176.05 2291.55L2166.71 2293.54L2157.47 2295.43L2160.21 2290.81C2170.19 2273.83 2191.1 2245.34 2208.52 2225.25C2223.31 2207.98 2263.92 2168.82 2282.2 2154.1Z" fill="white"/>
<path d="M1080.86 334.981C1079.64 337.151 1078.7 342.243 1078.7 346.58C1078.71 358.459 1085.22 367.788 1096.26 371.645C1103.8 374.279 1111.25 373.614 1117.94 369.743C1122.75 367.006 1123.31 367.005 1124.92 369.738C1127.94 374.638 1177.89 481.799 1177.99 483.213C1177.9 484.25 1105.47 458.66 1085 450.472C1082.08 449.249 1080.19 449.062 1080.85 449.91C1081.42 450.852 1095.48 469.415 1112.09 491.276C1128.61 513.042 1142.1 531.229 1142.1 531.606C1142.1 532.171 1054.98 526.202 1044.33 524.796L1039.14 524.14L1039.04 515.749C1039.12 498.119 1024.03 485.873 1007.06 489.657C1000.28 491.171 999.238 491.831 992.833 498.813C984.731 507.682 983.415 512.208 986.533 521.728C990.502 534.17 1004.37 543.494 1016.34 541.882C1023.69 540.934 1032.83 534.987 1035.38 529.8C1036.98 526.31 1037.64 525.838 1039.62 526.685C1040.75 527.25 1067.73 544.201 1099.51 564.259C1141.3 590.909 1157.52 601.645 1158.56 603.813C1159.32 605.509 1162.81 609.749 1166.3 613.235C1171.3 618.228 1174.13 620.112 1179.51 621.71C1183.28 622.839 1187.62 625.098 1189.32 626.794C1193.47 630.939 1201.2 635.082 1206.29 636.021C1209.4 636.49 1212.14 638.279 1216.29 642.425C1227.61 653.73 1238.55 655.23 1253.54 647.771C1266.54 641.161 1285.11 629.551 1300 618.603C1317.99 605.485 1364.16 559.253 1377.25 541.235C1388.17 526.331 1399.76 507.749 1406.35 494.733C1413.69 479.831 1412.27 468.801 1401.23 457.779C1396.98 453.539 1395.09 450.524 1393.77 445.622C1392.73 442.134 1389.71 436.48 1386.97 432.993C1384.24 429.507 1381.03 423.664 1379.89 420.082C1377.34 412.636 1370.55 404.91 1362.06 400.014C1356.78 397.001 1349.88 386.352 1293.34 295.036L1284 280.052L1288.8 276.56C1291.25 274.673 1294.64 270.899 1296.24 268.164C1299.63 262.316 1300.57 250.247 1298.11 244.215C1294.05 234.507 1283.2 227.821 1271.8 228.113C1257.47 228.501 1245.13 243.123 1247.12 257.358C1249.01 271.31 1259.58 280.354 1274 280.626L1282.49 280.808L1283.25 289.481C1285.91 319.838 1290.3 383.568 1289.64 383.474C1288.88 383.475 1217.94 330.353 1210.21 323.948L1206.72 321.028L1209.74 329.323C1211.44 333.847 1219.66 355.997 1227.88 378.524C1236.29 401.05 1242.81 419.619 1242.62 419.996C1242.24 420.374 1133.59 369.732 1127.46 366.248C1125.29 365.024 1125.39 364.175 1127.36 361.062C1131.51 354.837 1132.35 346.634 1129.7 338.528C1125.83 327.311 1118.47 321.471 1106.78 320.726C1095.65 319.98 1086.23 325.266 1080.86 334.981ZM1196.9 433.135C1228.59 447.631 1246.6 456.009 1246.98 456.385C1247.17 456.574 1240.2 463.933 1231.34 472.802C1222.58 481.577 1215.14 488.653 1214.86 488.371C1214.48 487.994 1199.46 456.044 1193.33 442.378C1189.45 433.99 1190.96 430.406 1196.9 433.135ZM1156.89 505.479C1157.55 506.704 1158.02 506.798 1158.21 505.666C1158.49 504.629 1165.09 506.321 1175.84 509.896L1193.1 515.823L1191.21 519.03C1190.18 520.822 1186.6 525.727 1183.11 529.784L1176.9 537.331L1175.1 534.598C1174.16 533.09 1168.59 525.269 1162.83 517.259C1157.08 509.25 1153.11 502.842 1154.24 503.029C1155.28 503.312 1156.51 504.348 1156.89 505.479ZM1262.96 395.279C1264 396.127 1271.74 401.778 1280.23 407.617C1288.72 413.645 1295.7 418.731 1295.7 418.92C1295.6 419.58 1275.72 434.396 1274.78 434.397C1273.18 434.493 1262.59 399.994 1264.1 399.616C1264.85 399.426 1264.95 398.766 1264.1 398.296C1262.02 396.6 1260.42 394.621 1260.89 394.15C1261.17 393.867 1262.12 394.432 1262.96 395.279ZM1128.45 553.583C1130.52 553.77 1131.37 554.053 1130.43 554.242C1129.39 554.525 1129.02 555.28 1129.49 555.751C1130.05 556.316 1131.19 556.127 1131.85 555.466C1132.6 554.712 1139.76 554.518 1147.68 555.077L1162.3 556.104L1160.7 559.97C1159.76 562.045 1157.78 565.535 1156.27 567.799C1154.01 571.195 1153.16 571.667 1151.18 570.631C1148.07 569.031 1124.21 553.681 1124.4 553.492C1124.49 553.398 1126.28 553.491 1128.45 553.583ZM1319.61 377.229C1323.01 382.318 1326.98 388.538 1328.49 390.988L1331.04 395.229L1323.59 399.288C1319.35 401.46 1315.67 403.254 1315.3 403.254C1314.92 403.255 1313.97 395.336 1313.21 385.531C1312.45 375.726 1312.25 367.807 1312.63 367.807C1313.01 367.806 1316.12 372.047 1319.61 377.229ZM1286.48 446.834C1310.22 427.583 1339.91 408.421 1346.22 408.134C1352.54 407.846 1354.52 413.596 1349.81 418.313C1348.31 419.823 1343.03 423.41 1337.94 426.43C1312.78 441.44 1286.11 463.239 1254.46 494.941C1223.94 525.511 1203.59 550.227 1187.77 575.884C1178.26 591.447 1174.77 594.938 1170.91 593.15C1166.66 591.361 1166.19 586.742 1169.48 580.423C1179.27 562.125 1202.73 529.958 1223.92 505.9C1234 494.485 1272.44 458.063 1286.48 446.834ZM1280.49 504.915C1287.84 502.835 1293.97 501.417 1294.16 501.605C1294.91 502.359 1288.33 527.065 1287.01 528.386C1285.13 530.273 1260.34 536.231 1260.33 534.911C1260.33 533.969 1266.63 509.545 1267.1 508.885C1267.1 508.696 1273.23 506.9 1280.49 504.915ZM1237.25 551.805C1240.55 550.011 1242.62 549.821 1245.54 551.233C1252.9 554.81 1252.25 562.448 1243.49 573.108C1239.15 578.579 1238.02 579.334 1234.44 579.337C1231.99 579.339 1229.25 578.115 1227.18 576.043C1223.31 572.18 1223.78 567.937 1228.77 560.485C1230.56 557.75 1232.25 555.297 1232.44 554.92C1232.72 554.637 1234.8 553.315 1237.25 551.805ZM1325.05 466.887C1332.5 463.77 1340.14 470.081 1337.89 477.625C1336.57 481.963 1326.96 489.513 1320.92 491.214C1312.54 493.389 1305.93 484.72 1310.64 477.74C1312.9 474.344 1319.97 468.965 1325.05 466.887ZM1209.38 599.532C1214.65 597.077 1219.56 595.187 1220.31 594.998C1221.06 594.998 1221.07 600.466 1220.51 607.066C1219.29 618.852 1219.2 619.135 1214.96 621.307C1212.6 622.534 1209.21 623.102 1207.6 622.632C1203.74 621.409 1196.94 614.815 1195.71 610.95C1194.58 606.991 1196.65 605.293 1209.38 599.532ZM1366.23 438.1C1368.31 438.099 1368.4 437.816 1366.7 437.251C1365.57 436.875 1366.14 436.686 1367.84 436.873C1371.61 437.248 1380 444.878 1381.23 449.12C1381.71 450.534 1381.05 453.834 1379.82 456.192C1377.66 460.625 1377.38 460.719 1366.16 461.576C1360.03 462.052 1354.37 462.245 1353.9 461.962C1353.15 461.586 1361.52 441.309 1363.5 438.762C1363.69 438.385 1365.01 438.195 1366.23 438.1ZM1341.02 504.116C1354.11 494.583 1377.77 478.821 1386.25 473.912L1389.74 471.929L1387.57 477.117C1381.74 490.32 1379.1 493.528 1363.46 504.853C1318.32 537.979 1296.56 559.586 1265.95 601.564C1251.91 620.902 1248.24 624.205 1235.89 629.022L1230.52 631.006L1241.44 613.839C1251.61 597.992 1268.1 575.069 1277.33 563.937C1279.4 561.296 1291.46 549.219 1303.99 536.859C1321.04 520.158 1330.46 511.855 1341.02 504.116Z" fill="white"/>
<path d="M1034.63 418.643C1031.43 423.925 1030.59 427.603 1031.06 434.485C1031.92 447.024 1041.26 457.105 1053.61 458.698C1063.99 460.011 1069.45 457.932 1076.71 449.913C1081.79 444.252 1082.83 442.272 1083.39 436.803C1085.36 419.171 1072.52 405.415 1054.99 406.56C1045.75 407.133 1039.34 411.097 1034.63 418.643Z" fill="white"/>
<path d="M1167.75 285.325C1162.2 296.171 1163.34 307.295 1170.98 316.058C1176.64 322.653 1183.53 325.571 1192.48 325.281C1199.27 325.088 1203.89 322.916 1209.64 317.16C1219.06 307.725 1219.8 294.902 1211.87 283.029C1206.49 275.208 1194.14 270.974 1184.05 273.339C1178.12 274.757 1170.2 280.609 1167.75 285.325Z" fill="white"/>
<path d="M343.454 2002.17C342.23 2004.34 341.291 2009.43 341.294 2013.76C341.303 2025.64 347.815 2034.97 358.849 2038.83C366.394 2041.46 373.841 2040.8 380.532 2036.93C385.339 2034.19 385.904 2034.19 387.509 2036.92C390.53 2041.82 440.484 2148.98 440.58 2150.4C440.486 2151.43 368.059 2125.84 347.594 2117.66C344.671 2116.43 342.785 2116.25 343.446 2117.09C344.012 2118.04 358.074 2136.6 374.683 2158.46C391.199 2180.23 404.695 2198.41 404.695 2198.79C404.695 2199.36 317.575 2193.39 306.92 2191.98L301.735 2191.32L301.634 2182.93C301.715 2165.3 286.621 2153.06 269.653 2156.84C262.866 2158.36 261.83 2159.02 255.424 2166C247.322 2174.87 246.006 2179.39 249.124 2188.91C253.093 2201.35 266.959 2210.68 278.932 2209.07C286.285 2208.12 295.426 2202.17 297.968 2196.98C299.568 2193.49 300.227 2193.02 302.208 2193.87C303.34 2194.43 330.317 2211.39 362.104 2231.44C403.891 2258.09 420.115 2268.83 421.154 2271C421.909 2272.69 425.401 2276.93 428.892 2280.42C433.892 2285.41 436.722 2287.3 442.097 2288.89C445.869 2290.02 450.208 2292.28 451.906 2293.98C456.058 2298.12 463.792 2302.27 468.884 2303.21C471.996 2303.67 474.731 2305.46 478.882 2309.61C490.205 2320.91 501.142 2322.41 516.127 2314.96C529.133 2308.35 547.698 2296.74 562.586 2285.79C580.584 2272.67 626.747 2226.44 639.839 2208.42C650.764 2193.52 662.347 2174.93 668.937 2161.92C676.28 2147.02 674.857 2135.99 663.818 2124.96C659.572 2120.72 657.684 2117.71 656.361 2112.81C655.321 2109.32 652.3 2103.66 649.563 2100.18C646.826 2096.69 643.616 2090.85 642.482 2087.27C639.931 2079.82 633.137 2072.09 624.648 2067.2C619.366 2064.19 612.476 2053.54 555.933 1962.22L546.588 1947.24L551.394 1943.75C553.844 1941.86 557.235 1938.08 558.836 1935.35C562.226 1929.5 563.16 1917.43 560.704 1911.4C556.642 1901.69 545.795 1895.01 534.387 1895.3C520.057 1895.69 507.717 1910.31 509.708 1924.54C511.604 1938.49 522.17 1947.54 536.595 1947.81L545.08 1947.99L545.841 1956.67C548.504 1987.02 552.888 2050.75 552.228 2050.66C551.474 2050.66 480.535 1997.54 472.799 1991.13L469.309 1988.21L472.332 1996.51C474.032 2001.03 482.251 2023.18 490.47 2045.71C498.878 2068.24 505.398 2086.8 505.209 2087.18C504.832 2087.56 396.183 2036.92 390.052 2033.43C387.883 2032.21 387.976 2031.36 389.954 2028.25C394.098 2022.02 394.94 2013.82 392.294 2005.71C388.42 1994.5 381.062 1988.66 369.371 1987.91C358.245 1987.16 348.821 1992.45 343.454 2002.17ZM459.493 2100.32C491.182 2114.82 509.196 2123.19 509.573 2123.57C509.762 2123.76 502.791 2131.12 493.935 2139.99C485.173 2148.76 477.731 2155.84 477.447 2155.56C477.07 2155.18 462.056 2123.23 455.917 2109.56C452.045 2101.17 453.551 2097.59 459.493 2100.32ZM419.477 2172.66C420.138 2173.89 420.61 2173.98 420.798 2172.85C421.08 2171.81 427.681 2173.51 438.431 2177.08L455.689 2183.01L453.806 2186.21C452.77 2188.01 449.191 2192.91 445.706 2196.97L439.489 2204.52L437.695 2201.78C436.752 2200.27 431.183 2192.45 425.426 2184.44C419.669 2176.43 415.704 2170.03 416.836 2170.21C417.873 2170.5 419.1 2171.53 419.477 2172.66ZM525.556 2062.46C526.593 2063.31 534.328 2068.96 542.818 2074.8C551.308 2080.83 558.289 2085.92 558.289 2086.1C558.195 2086.76 538.313 2101.58 537.37 2101.58C535.767 2101.68 525.182 2067.18 526.69 2066.8C527.444 2066.61 527.538 2065.95 526.689 2065.48C524.614 2063.78 523.009 2061.81 523.48 2061.33C523.763 2061.05 524.706 2061.62 525.556 2062.46ZM391.041 2220.77C393.115 2220.95 393.964 2221.24 393.021 2221.43C391.984 2221.71 391.608 2222.46 392.079 2222.94C392.645 2223.5 393.777 2223.31 394.436 2222.65C395.19 2221.9 402.355 2221.7 410.275 2222.26L424.889 2223.29L423.289 2227.15C422.348 2229.23 420.371 2232.72 418.864 2234.98C416.604 2238.38 415.756 2238.85 413.775 2237.82C410.663 2236.22 386.798 2220.87 386.986 2220.68C387.081 2220.58 388.872 2220.68 391.041 2220.77ZM582.205 2044.41C585.603 2049.5 589.567 2055.72 591.078 2058.17L593.626 2062.41L586.181 2066.47C581.94 2068.64 578.265 2070.44 577.887 2070.44C577.51 2070.44 576.562 2062.52 575.8 2052.72C575.038 2042.91 574.844 2034.99 575.221 2034.99C575.598 2034.99 578.713 2039.23 582.205 2044.41ZM549.07 2114.02C572.814 2094.77 602.499 2075.61 608.815 2075.32C615.132 2075.03 617.116 2080.78 612.405 2085.5C610.898 2087.01 605.621 2090.59 600.532 2093.62C575.37 2108.62 548.705 2130.42 517.05 2162.13C486.526 2192.7 466.18 2217.41 450.36 2243.07C440.849 2258.63 437.363 2262.12 433.497 2260.33C429.253 2258.55 428.778 2253.93 432.073 2247.61C441.864 2229.31 465.316 2197.14 486.512 2173.08C496.591 2161.67 535.03 2125.25 549.07 2114.02ZM543.079 2172.1C550.432 2170.02 556.559 2168.6 556.748 2168.79C557.502 2169.54 550.921 2194.25 549.602 2195.57C547.718 2197.46 522.927 2203.42 522.926 2202.1C522.925 2201.15 529.224 2176.73 529.694 2176.07C529.694 2175.88 535.821 2174.08 543.079 2172.1ZM499.839 2218.99C503.138 2217.2 505.212 2217.01 508.136 2218.42C515.492 2221.99 514.838 2229.63 506.078 2240.29C501.745 2245.76 500.614 2246.52 497.032 2246.52C494.58 2246.52 491.845 2245.3 489.769 2243.23C485.901 2239.36 486.369 2235.12 491.361 2227.67C493.15 2224.93 494.845 2222.48 495.033 2222.1C495.316 2221.82 497.389 2220.5 499.839 2218.99ZM587.646 2134.07C595.092 2130.95 602.733 2137.27 600.476 2144.81C599.159 2149.15 589.548 2156.7 583.516 2158.4C575.126 2160.57 568.52 2151.9 573.229 2144.92C575.489 2141.53 582.556 2136.15 587.646 2134.07ZM471.968 2266.72C477.246 2264.26 482.147 2262.37 482.901 2262.18C483.655 2262.18 483.659 2267.65 483.099 2274.25C481.882 2286.04 481.788 2286.32 477.547 2288.49C475.191 2289.72 471.797 2290.29 470.194 2289.82C466.327 2288.59 459.534 2282 458.306 2278.13C457.171 2274.18 459.244 2272.48 471.968 2266.72ZM628.825 2105.28C630.899 2105.28 630.993 2105 629.296 2104.44C628.164 2104.06 628.73 2103.87 630.427 2104.06C634.198 2104.43 642.595 2112.06 643.824 2116.3C644.296 2117.72 643.639 2121.02 642.415 2123.38C640.25 2127.81 639.967 2127.9 628.748 2128.76C622.62 2129.24 616.964 2129.43 616.492 2129.15C615.738 2128.77 624.113 2108.49 626.091 2105.95C626.28 2105.57 627.6 2105.38 628.825 2105.28ZM603.607 2171.3C616.705 2161.77 640.358 2146.01 648.839 2141.1L652.326 2139.11L650.162 2144.3C644.326 2157.5 641.689 2160.71 626.047 2172.04C580.911 2205.16 559.148 2226.77 528.538 2268.75C514.505 2288.09 510.83 2291.39 498.483 2296.21L493.11 2298.19L504.034 2281.02C514.205 2265.18 530.687 2242.25 539.918 2231.12C541.99 2228.48 554.049 2216.4 566.579 2204.04C583.632 2187.34 593.053 2179.04 603.607 2171.3Z" fill="white"/>
<path d="M297.225 2085.83C294.023 2091.11 293.177 2094.79 293.654 2101.67C294.512 2114.21 303.853 2124.29 316.205 2125.88C326.577 2127.2 332.044 2125.12 339.297 2117.1C344.384 2111.44 345.42 2109.46 345.981 2103.99C347.948 2086.36 335.116 2072.6 317.58 2073.74C308.341 2074.32 301.933 2078.28 297.225 2085.83Z" fill="white"/>
<path d="M430.344 1952.51C424.789 1963.36 425.929 1974.48 433.572 1983.24C439.234 1989.84 446.119 1992.76 455.075 1992.47C461.863 1992.27 466.482 1990.1 472.228 1984.34C481.649 1974.91 482.394 1962.09 474.466 1950.21C469.086 1942.39 456.732 1938.16 446.646 1940.52C440.707 1941.94 432.792 1947.79 430.344 1952.51Z" fill="white"/>
<path d="M1087.35 1192.95C1086.42 1201.62 1087.18 1214.26 1088.89 1222.93L1089.74 1226.61L1080.69 1227.74C1071.73 1228.79 1059.01 1232.29 1057.03 1234.27C1054.29 1237 1067.32 1259.62 1077.23 1269.51L1082.14 1274.41L1079.97 1284.88C1076.31 1302.51 1077.17 1318.07 1082.94 1336.45C1089.17 1355.87 1089.84 1365.95 1086.46 1384.25C1083.36 1400.75 1083.58 1435.25 1086.69 1444.4C1089.81 1453.35 1096.13 1459.29 1106.6 1462.96C1116.79 1466.72 1131.21 1466.24 1140.07 1461.89C1144.97 1459.63 1147.42 1459.25 1150.44 1460.57C1155.72 1462.64 1164.11 1461.97 1169.95 1458.95C1179.76 1454.04 1190.02 1436.4 1192.08 1420.94C1192.46 1418.11 1194.62 1411.22 1196.97 1405.66C1201.11 1395.47 1205.15 1376.9 1204.68 1369.64C1204.58 1366.34 1205.52 1364.83 1212.12 1358.23C1221.44 1348.88 1227.09 1339.64 1231.61 1326.63C1233.4 1321.25 1235.28 1316.72 1235.75 1316.82C1237.82 1316.82 1256.22 1335 1260.09 1340.94C1265.85 1349.51 1271.05 1365.63 1270.39 1372.51C1270.02 1375.53 1268.71 1384.39 1267.2 1392.31C1264.01 1409.66 1263.75 1445.02 1266.6 1464.06C1269.06 1480.28 1275.3 1505.92 1276.81 1505.92C1277.38 1505.91 1283.69 1500.54 1290.94 1493.84C1314.5 1472.13 1335.41 1443.83 1351.03 1412.71C1365.72 1383.47 1380.51 1363.94 1405.76 1340.36C1429.12 1318.65 1449.1 1304.87 1477.09 1291.37C1485.29 1287.31 1492.08 1283.72 1491.98 1283.25C1492.07 1281.46 1457.92 1244.34 1450.65 1238.22C1434.52 1224.75 1417.54 1215.33 1404.25 1212.61C1399.25 1211.57 1398.21 1210.91 1396.61 1207.43C1393.21 1200.64 1377.83 1187.92 1365.47 1181.99C1351.99 1175.5 1336.33 1170.23 1323.79 1168.07C1317.1 1166.85 1312.57 1165.16 1309.17 1162.52C1296.53 1152.91 1261.46 1147.66 1237.14 1151.64C1232.52 1152.3 1227.61 1151.74 1221.58 1149.67C1207.62 1144.97 1180.75 1147.53 1166.24 1154.9C1163.88 1156.12 1158.32 1158.67 1154.08 1160.66C1145.41 1164.43 1131.75 1174.53 1121.85 1184.44L1115.54 1190.76L1106.68 1187.75C1101.96 1186.06 1095.74 1184.55 1093.1 1184.18L1088.2 1183.62L1087.35 1192.95ZM1156.26 1174.7C1169.64 1167.34 1173.42 1171.29 1165.32 1184.12C1159.86 1192.8 1153.17 1198.75 1144.68 1202.33C1137.14 1205.55 1136.77 1205.55 1132.8 1202.16C1128.84 1198.76 1128.75 1198.48 1131.39 1195.09C1136.38 1188.76 1147.97 1179.23 1156.26 1174.7ZM1206.97 1161.28C1218.38 1160.61 1220.93 1163.34 1215.18 1169.85C1213.11 1172.3 1208.96 1175.7 1206.04 1177.49C1198.6 1181.93 1180.41 1189.77 1179.56 1188.92C1179.18 1188.54 1179.65 1186.75 1180.69 1185.15C1181.63 1183.45 1183.04 1179.21 1183.79 1175.62C1184.64 1172.14 1185.58 1168.93 1185.86 1168.46C1186.14 1168.17 1186.52 1167.23 1186.52 1166.48C1186.42 1164.5 1196.89 1161.76 1206.97 1161.28ZM1118.89 1251C1118.6 1250.53 1121.34 1249.3 1125.11 1248.36C1130.76 1246.85 1132.55 1245.81 1135.85 1241.56C1141.03 1235.05 1143.48 1234.49 1143.3 1239.77C1142.55 1255.04 1129.46 1262.31 1118.7 1253.64C1115.3 1250.82 1114.74 1250.06 1116.81 1250.82C1118.32 1251.38 1119.26 1251.38 1118.89 1251ZM1142.35 1231.85C1142.54 1232.6 1142.16 1233.92 1141.6 1234.49C1140.94 1235.15 1140.65 1234.68 1140.94 1233.26C1141.59 1230.34 1141.97 1229.96 1142.35 1231.85ZM1115.43 1287.49C1119.86 1287.02 1121.09 1290.32 1117.88 1294.66C1114.96 1298.71 1115.15 1298.9 1118.83 1302.01C1121.76 1304.36 1122.79 1306.34 1122.8 1309.36C1123.08 1314.92 1117.71 1320.3 1111.87 1320.49L1107.53 1320.69L1108.1 1325.59C1108.58 1329.83 1108.29 1330.68 1105.84 1330.87C1098.96 1331.53 1095.37 1321.54 1098.66 1311.08C1103.27 1296.84 1109.49 1287.97 1115.43 1287.49ZM1248.55 1166.05C1272.03 1165 1300.69 1169.88 1303.15 1175.35C1305.13 1179.96 1295.61 1184.21 1279.02 1186.49C1267.52 1188.01 1257.72 1188.01 1236.03 1187.09L1218.97 1186.25L1222.64 1183.14C1224.62 1181.34 1227.82 1177.76 1229.61 1174.84C1231.49 1172.01 1233.66 1169.08 1234.32 1168.23C1235.07 1167.29 1241.48 1166.34 1248.55 1166.05ZM1217.98 1257.25C1224.86 1257.9 1233.27 1273.07 1235.73 1289.29C1237.06 1297.58 1235.27 1304.09 1231.12 1306.17C1227.54 1308.06 1222.92 1304.95 1222.16 1300.42C1220.46 1288.92 1218.09 1280.16 1214.88 1273.37C1212.9 1269.13 1211.29 1264.7 1211.2 1263.47C1210.91 1260.36 1214.68 1256.97 1217.98 1257.25ZM1306.75 1192.88C1310.04 1191.27 1314.19 1188.07 1316.07 1185.8L1319.47 1181.84L1331.72 1185.6C1372.18 1198.11 1399.25 1218.93 1375.21 1218.85C1364.56 1218.95 1351.36 1215.57 1330.04 1207.29C1318.73 1202.96 1307.41 1198.63 1304.77 1197.88C1302.32 1197.13 1300.34 1196.28 1300.53 1196.09C1300.71 1195.9 1303.54 1194.39 1306.75 1192.88ZM1117.6 1415.71C1120.8 1415.33 1124.01 1419.48 1123.35 1423.35C1123.07 1425.33 1121 1428.72 1118.93 1430.8C1112.8 1436.93 1105.73 1436.84 1104.41 1430.62C1103.46 1426.28 1112.22 1416.38 1117.6 1415.71ZM1158.4 1395.79C1165.1 1396.44 1165.48 1405.68 1159.37 1427.84C1155.52 1442.46 1153.45 1446.61 1150.15 1447.46C1146.09 1448.31 1142.6 1445.02 1142.5 1440.02C1142.41 1437.66 1142.78 1435.21 1143.35 1434.64C1143.91 1434.08 1145.98 1425.97 1148.05 1416.73C1151.81 1399.57 1153.88 1395.42 1158.4 1395.79ZM1384.75 1232.89C1384.94 1233.83 1385.22 1233.93 1385.5 1233.08C1385.69 1232.32 1388.7 1230.25 1392.19 1228.64C1397.56 1226.09 1399.54 1226 1405.48 1227.97C1411.61 1229.95 1413.59 1231.36 1421.33 1239.27C1434.82 1253.12 1440.49 1266.7 1432.95 1267.46C1428.61 1267.84 1419.46 1262.09 1400.41 1247.4C1380.31 1231.67 1380.79 1232.14 1382.77 1231.67C1383.71 1231.48 1384.46 1232.04 1384.75 1232.89ZM1464.44 1274.98L1466.43 1278.46L1455.78 1284.22C1446.54 1289.32 1444.75 1289.79 1442.96 1288C1440.22 1285.27 1440.79 1283.38 1446.34 1277.63C1450.21 1273.38 1450.77 1271.87 1450.49 1266.5L1450.2 1260.37L1456.33 1265.93C1459.73 1268.94 1463.31 1273.09 1464.44 1274.98Z" fill="white"/>
<path d="M1937.76 1244.26C1935.87 1247.09 1932.67 1253.31 1930.6 1258.03L1926.93 1266.61L1919.49 1269.35C1900.73 1276.25 1890.56 1297.19 1896.8 1316.6C1899.26 1324.52 1909.16 1335.73 1916.24 1338.65C1929.72 1344.2 1943.68 1343.06 1953.95 1335.6C1961.3 1330.32 1965.44 1323.91 1970.05 1311.17C1973.72 1301.08 1975.79 1296.93 1974.76 1301.74C1974.38 1303.82 1974.48 1303.91 1975.7 1302.68C1976.93 1301.46 1998.8 1307.48 1998.62 1308.98C1998.52 1309.27 1997.87 1312.94 1996.93 1317.28C1995.24 1326.33 1994.4 1345.85 1995.82 1347.26C1996.29 1347.74 2009.39 1349.33 2024.86 1350.64L2053.14 1353.07L2056.53 1345.9C2059.17 1340.24 2061.71 1337.13 2067.84 1331.56C2077.63 1322.88 2086.31 1319.67 2098.66 1320.13C2111.2 1320.59 2118.36 1323.79 2127.52 1332.74C2134.22 1339.43 2135.44 1341.41 2138.28 1349.7C2145.36 1370.35 2136.24 1393.64 2117.29 1402.99L2110.03 1406.48L2110.8 1415.34C2111.18 1420.25 2112.13 1431.56 2112.89 1440.42L2114.13 1456.54L2118.93 1456.07C2121.48 1455.78 2129.87 1453.98 2137.5 1452.19C2154 1448.31 2162.11 1449.06 2169.75 1455.37C2180.41 1464.13 2181.27 1477.8 2172.33 1499.21C2164.14 1519.11 2160.57 1536.83 2161.25 1553.9L2161.63 1562.76L2166.06 1559.65C2173.03 1554.74 2201.86 1525.49 2210.05 1515.02C2219.85 1502.38 2231.9 1482 2238.21 1467.39L2243.2 1455.6L2252.62 1451.82C2270.53 1444.45 2285.42 1430.86 2298.03 1410.11C2301.24 1404.83 2304.81 1397.47 2306.04 1393.8L2308.2 1387.1L2295.94 1387.11C2285.95 1387.12 2280.86 1388.06 2267.38 1392.88C2245.8 1400.54 2236.08 1401.01 2226.46 1394.99C2216.94 1389.05 2214.85 1378.87 2218.89 1358.41C2221.9 1343.51 2222.07 1324.09 2219.52 1310.42C2217.81 1301.56 2217.15 1296.56 2218.28 1300.71C2218.66 1301.84 2219.42 1302.03 2220.36 1301.09C2221.21 1300.24 2221.11 1299.39 2220.36 1299.2C2219.41 1299.01 2221.02 1297.98 2223.84 1297.03C2226.67 1296.09 2229.12 1295.9 2229.6 1296.93C2229.97 1297.87 2233.09 1301.93 2236.49 1306.07C2248.75 1320.58 2266.67 1329.62 2283.64 1329.8C2295.81 1329.88 2302.03 1327.43 2311.45 1318.93C2318.23 1312.89 2319.46 1311.1 2321.71 1304.5C2326.23 1291.3 2323.29 1272.92 2314.33 1258.31C2304.32 1242.29 2286.03 1238.34 2270.38 1248.91C2265.01 1252.41 2263.6 1252.88 2262.84 1251.18C2253.68 1230.54 2246.32 1219.99 2227.92 1201.05C2218.96 1191.91 2208.96 1180.98 2205.65 1177.12C2194.42 1163.27 2175.75 1155.17 2157.46 1156.13C2151.43 1156.51 2145.86 1156.04 2145.11 1155.29C2144.35 1154.54 2139.17 1152.37 2133.7 1150.49C2117.95 1145.32 2099 1146.93 2085.71 1154.58C2081.85 1156.94 2078.92 1157.41 2073.74 1156.57C2065.16 1155.35 2050.17 1158.28 2040.65 1163.1C2036.32 1165.37 2029.91 1170.09 2025.48 1174.33C2018.32 1181.12 2017.09 1181.79 2009.55 1183.3C1994.38 1186.23 1977.6 1199.45 1969.7 1214.35C1965.74 1221.7 1965.08 1222.55 1960.09 1224.91C1953.21 1228.22 1942.47 1237.66 1937.76 1244.26ZM1997.79 1216.4C2006.85 1217.9 2015.99 1215.16 2024.37 1208.08L2030.78 1202.8L2028.99 1207.04C2025.51 1215.63 2008.74 1228.84 1999.59 1230.26C1994.03 1230.92 1988 1227.72 1986.3 1223.01C1984.22 1217.54 1988.93 1214.9 1997.79 1216.4ZM1952.1 1260.09C1959.74 1261.31 1967.65 1258.28 1976.42 1250.83L1984.24 1244.32L1983.02 1249.5C1981.42 1256.58 1974.64 1265.07 1967 1269.88C1956.35 1276.39 1943.81 1274.24 1943.81 1265.94C1943.71 1261.51 1946.82 1259.34 1952.1 1260.09ZM1917.91 1301.88C1922.72 1306.5 1931.68 1309.41 1937.8 1308.37C1941.86 1307.71 1951.47 1302.42 1955.9 1298.55C1959.29 1295.53 1956.47 1308.73 1952.33 1315.52C1945.27 1326.94 1918.58 1322.34 1914.23 1308.95C1912.91 1304.99 1912.63 1299.81 1913.47 1298.96C1913.85 1298.58 1915.93 1299.9 1917.91 1301.88ZM2050.66 1178.93C2052.64 1179.4 2055.65 1180.53 2057.35 1181.66C2059.14 1182.7 2063.58 1183.54 2067.25 1183.63C2073.95 1183.72 2089.31 1179.47 2092.33 1176.64C2093.55 1175.41 2093.65 1175.88 2092.61 1178.24C2089.79 1185.03 2074.24 1194.75 2063.96 1196.18C2054.63 1197.41 2045.67 1192.8 2043.4 1185.63C2042.36 1181.77 2046.41 1178.09 2050.66 1178.93ZM2026.28 1233.35C2071.13 1199.38 2131.84 1193.48 2174.95 1219C2185.61 1225.31 2202.31 1241.23 2209.95 1252.26C2215.43 1260.17 2223.83 1278.74 2222.61 1279.97C2221.76 1280.82 2213.65 1283.84 2212.05 1283.93C2211.67 1283.93 2208.09 1278.28 2203.74 1271.31C2196.95 1260 2194.97 1257.45 2183.45 1246.72C2172.32 1236.35 2169.3 1234.09 2159.59 1229.48C2126.11 1213.38 2091.7 1214.26 2058.24 1231.91C2048.25 1237.2 2046.08 1238.99 2031.38 1253.71C2015.18 1269.94 2012.36 1273.9 2004.07 1292.39C2003.51 1293.71 1984.84 1287.31 1982.48 1284.95C1981.72 1284.2 1989.35 1271.66 1996.04 1262.69C2000.65 1256.56 2018.55 1239.2 2026.28 1233.35ZM2117.11 1163.14C2119.09 1163.61 2121.07 1165.59 2123.25 1168.88C2128.81 1177.46 2140.89 1182.54 2155.41 1182.53C2162.67 1182.62 2162.48 1183.19 2154.47 1185.74C2146.55 1188.38 2129.95 1188.58 2122.88 1186.42C2114.77 1183.79 2109.2 1178.04 2109.01 1172.19C2108.82 1166.35 2112.87 1161.73 2117.11 1163.14ZM2185.01 1183.64C2188.69 1182.6 2192.37 1186.46 2193.22 1192.4C2194.36 1200.13 2211.53 1217.47 2226.05 1225.56L2229.07 1227.26L2225.11 1227.45C2215.68 1228.02 2197.58 1218.99 2186.91 1208.34C2178.99 1200.43 2176.91 1195.9 2178.6 1190.62C2180.02 1186.19 2181.43 1184.77 2185.01 1183.64ZM2245.88 1262.7C2248.52 1264.01 2250.69 1266.94 2255.32 1275.89C2259.66 1283.99 2263.34 1289.36 2268.15 1294.17C2274.1 1300.1 2275.61 1301.05 2281.74 1302.08C2290.41 1303.58 2298.05 1302.16 2303.89 1298.01L2308.32 1294.71L2306.72 1298.76C2304.55 1304.14 2298.15 1310.55 2292.78 1312.72C2280.9 1317.64 2261.57 1310.58 2249.96 1297.29C2243.36 1289.57 2237.41 1277.98 2236.55 1271.09C2235.89 1265.15 2241.16 1260.44 2245.88 1262.7ZM2288.12 1261.72C2292.36 1260.12 2297.17 1261.9 2302.17 1266.9C2308.11 1273.02 2307.93 1279.43 2301.43 1285.94C2294.93 1292.45 2288.52 1292.65 2282.29 1286.62C2277.57 1281.91 2275.12 1275.31 2276.81 1272.29C2279.17 1268.23 2284.82 1262.95 2288.12 1261.72Z" fill="white"/>
<path d="M1986.25 1412.33C1988.44 1440.14 1990.25 1464.74 1990.44 1467.38L1990.54 1472L2002.51 1473.22C2014.96 1474.34 2092.93 1480.03 2098.68 1480.12C2101.89 1480.31 2101.89 1478.61 2099.31 1442.88C2097.88 1422.42 2096.46 1403.48 2096.27 1401.02C2095.89 1396.88 2095.98 1396.59 2099.19 1396.4C2111.44 1395.83 2123.13 1386.39 2126.89 1374.32C2133.75 1352.54 2118.37 1331.9 2095.55 1332.11C2086.22 1332.21 2080.28 1334.76 2073.41 1341.83C2067 1348.25 2064.83 1353.06 2064.09 1362.11L2063.71 1367.01L2023.74 1363.84C2001.77 1362.06 1983.48 1360.94 1983.1 1361.32C1982.72 1361.7 1984.15 1384.61 1986.25 1412.33ZM2022.45 1404C2024.43 1403.91 2026.41 1404.19 2026.78 1404.56C2027.26 1405.04 2027.92 1411.35 2028.49 1418.71L2029.44 1432.09L2039.25 1432.65C2058.48 1433.96 2056.97 1433.39 2057.64 1440.27C2057.93 1443.57 2057.93 1446.59 2057.64 1446.87C2056.99 1447.72 2018.33 1445.11 2017.38 1444.17C2016.91 1443.7 2016.06 1435.31 2015.58 1425.6C2014.62 1406.74 2015.38 1404.29 2022.45 1404ZM2094.81 1346.81C2098.96 1345.87 2107.26 1350.39 2110.75 1355.57C2112.17 1357.55 2113.4 1361.41 2113.59 1364.05C2113.97 1368.39 2113.4 1369.52 2107.84 1375.09C2102.38 1380.56 2101.06 1381.32 2096.63 1381.22C2085.79 1381.33 2076.25 1367.66 2080.68 1358.51C2083.13 1353.42 2089.72 1347.95 2094.81 1346.81Z" fill="white"/>
<path d="M235.249 374.661C233.366 377.491 230.165 383.716 228.094 388.431L224.424 397.014L216.977 399.753C198.221 406.65 188.054 427.588 194.291 447.005C196.748 454.923 206.656 466.135 213.729 469.052C227.216 474.605 241.168 473.463 251.439 466.007C258.789 460.722 262.933 454.308 267.543 441.576C271.213 431.485 273.284 427.335 272.25 432.145C271.875 434.219 271.969 434.313 273.194 433.087C274.418 431.86 296.296 437.878 296.109 439.386C296.015 439.669 295.357 443.347 294.418 447.684C292.728 456.737 291.894 476.253 293.309 477.667C293.781 478.138 306.887 479.731 322.35 481.039L350.636 483.469L354.025 476.301C356.66 470.642 359.204 467.529 365.328 461.962C375.126 453.281 383.798 450.069 396.149 450.531C408.689 450.993 415.857 454.193 425.008 463.143C431.707 469.832 432.935 471.811 435.769 480.106C442.856 500.748 433.728 524.042 414.784 533.39L407.527 536.884L408.288 545.746C408.669 550.648 409.62 561.961 410.381 570.823L411.619 586.944L416.427 586.469C418.972 586.184 427.362 584.387 434.997 582.59C451.493 578.712 459.602 579.46 467.244 585.771C477.904 594.531 478.763 608.201 469.822 629.61C461.634 649.509 458.065 667.237 458.738 684.301L459.121 693.163L463.55 690.049C470.523 685.141 499.352 655.892 507.546 645.421C517.342 632.78 529.395 612.406 535.701 597.788L540.689 585.999L550.114 582.221C568.022 574.854 582.908 561.266 595.526 540.515C598.728 535.233 602.305 527.876 603.528 524.198L605.691 517.503L593.435 517.512C583.441 517.519 578.351 518.466 564.872 523.284C543.287 530.937 533.577 531.416 523.956 525.389C514.429 519.456 512.347 509.276 516.386 488.814C519.392 473.915 519.566 454.493 517.01 440.824C515.306 431.963 514.643 426.967 515.777 431.114C516.155 432.245 516.909 432.433 517.852 431.49C518.699 430.641 518.605 429.792 517.85 429.604C516.907 429.416 518.509 428.378 521.337 427.433C524.165 426.488 526.616 426.298 527.088 427.335C527.466 428.277 530.58 432.329 533.977 436.475C546.245 450.985 564.165 460.022 581.136 460.198C593.298 460.283 599.519 457.827 608.94 449.335C615.724 443.296 616.948 441.504 619.206 434.902C623.722 421.7 620.785 403.317 611.818 388.71C601.812 372.69 583.519 368.744 567.876 379.315C562.504 382.807 561.091 383.28 560.335 381.583C551.174 360.943 543.813 350.389 525.414 331.452C516.45 322.313 506.448 311.384 503.145 307.521C491.916 293.67 473.242 285.576 454.952 286.533C448.919 286.914 443.356 286.447 442.601 285.693C441.846 284.94 436.659 282.775 431.189 280.894C415.44 275.72 396.491 277.337 383.203 284.983C379.34 287.343 376.417 287.817 371.231 286.972C362.651 285.753 347.662 288.687 338.143 293.502C333.808 295.768 327.401 300.487 322.973 304.733C315.812 311.527 314.587 312.188 307.046 313.702C291.869 316.636 275.097 329.848 267.188 344.75C263.234 352.107 262.574 352.956 257.579 355.317C250.699 358.622 239.958 368.058 235.249 374.661ZM295.285 346.803C304.337 348.305 313.481 345.564 321.866 338.487L328.273 333.202L326.485 337.446C323.003 346.028 306.231 359.24 297.087 360.661C291.525 361.325 285.489 358.124 283.788 353.411C281.71 347.945 286.422 345.301 295.285 346.803ZM249.592 390.489C257.229 391.709 265.147 388.686 273.909 381.232L281.73 374.72L280.508 379.907C278.91 386.979 272.129 395.469 264.495 400.283C253.847 406.797 241.306 404.638 241.299 396.341C241.202 391.91 244.311 389.739 249.592 390.489ZM215.399 432.281C220.211 436.897 229.17 439.814 235.297 438.772C239.351 438.109 248.963 432.822 253.392 428.953C256.784 425.934 253.965 439.135 249.822 445.926C242.759 457.34 216.074 452.74 211.727 439.355C210.404 435.396 210.118 430.211 210.966 429.362C211.342 428.985 213.418 430.303 215.399 432.281ZM348.149 309.334C350.129 309.804 353.147 310.933 354.845 312.063C356.637 313.099 361.069 313.944 364.746 314.036C371.44 314.125 386.805 309.871 389.819 307.04C391.044 305.814 391.139 306.285 390.103 308.643C387.28 315.433 371.731 325.156 361.455 326.578C352.123 327.81 343.162 323.197 340.894 316.033C339.854 312.169 343.906 308.489 348.149 309.334ZM323.771 363.752C368.623 329.778 429.336 323.887 472.441 349.405C483.1 355.714 499.799 371.635 507.444 382.66C512.918 390.576 521.323 409.143 520.099 410.369C519.251 411.218 511.145 414.241 509.542 414.337C509.165 414.337 505.578 408.683 501.236 401.709C494.439 390.401 492.457 387.857 480.947 377.117C469.814 366.755 466.796 364.494 457.081 359.882C423.599 343.785 389.188 344.659 355.731 362.314C345.741 367.602 343.574 369.395 328.877 384.113C312.673 400.342 309.848 404.304 301.565 422.789C301 424.109 282.328 417.712 279.969 415.357C279.214 414.603 286.841 402.058 293.529 393.096C298.144 386.965 316.044 369.604 323.771 363.752ZM414.605 293.54C416.585 294.01 418.567 295.988 420.738 299.286C426.307 307.862 438.379 312.944 452.898 312.933C460.157 313.022 459.969 313.588 451.957 316.139C444.04 318.785 427.446 318.986 420.374 316.823C412.264 314.189 406.697 308.442 406.504 302.597C406.311 296.751 410.362 292.129 414.605 293.54ZM482.503 314.042C486.179 313.002 489.859 316.865 490.712 322.804C491.849 330.534 509.021 347.869 523.546 355.966L526.565 357.661L522.605 357.853C513.177 358.426 495.069 349.388 484.407 338.742C476.481 330.829 474.404 326.305 476.097 321.024C477.508 316.591 478.921 315.176 482.503 314.042ZM543.373 393.098C546.014 394.416 548.185 397.337 552.811 406.291C557.154 414.396 560.835 419.767 565.647 424.572C571.591 430.507 573.1 431.449 579.229 432.481C587.904 433.983 595.54 432.563 601.382 428.41L605.811 425.107L604.211 429.163C602.047 434.538 595.64 440.954 590.268 443.127C578.392 448.038 559.059 440.981 547.453 427.696C540.848 419.97 534.899 408.378 534.045 401.496C533.381 395.557 538.657 390.839 543.373 393.098ZM585.61 392.124C589.852 390.518 594.661 392.306 599.662 397.299C605.606 403.423 605.422 409.834 598.922 416.344C592.421 422.855 586.01 423.048 579.783 417.019C575.066 412.308 572.61 405.71 574.304 402.692C576.658 398.636 582.311 393.352 585.61 392.124Z" fill="white"/>
<path d="M283.741 542.728C285.93 570.539 287.74 595.145 287.93 597.785L288.028 602.404L300.003 603.621C312.449 604.743 390.423 610.436 396.174 610.526C399.38 610.712 399.379 609.015 396.806 573.284C395.377 552.827 393.949 533.877 393.758 531.426C393.378 527.278 393.472 526.995 396.677 526.804C408.934 526.229 420.617 516.792 424.38 504.722C431.246 482.938 415.863 462.302 393.047 462.507C383.713 462.608 377.775 465.158 370.898 472.235C364.492 478.651 362.327 483.46 361.579 492.512L361.206 497.415L321.228 494.239C299.26 492.464 280.968 491.347 280.591 491.724C280.215 492.101 281.646 515.011 283.741 542.728ZM319.938 534.404C321.918 534.308 323.898 534.589 324.276 534.966C324.748 535.437 325.412 541.754 325.983 549.107L326.936 562.494L336.742 563.053C355.976 564.358 354.467 563.794 355.132 570.676C355.418 573.975 355.42 576.992 355.137 577.275C354.478 578.124 315.821 575.513 314.877 574.571C314.406 574.1 313.551 565.71 313.072 555.999C312.115 537.144 312.868 534.692 319.938 534.404ZM392.304 477.216C396.451 476.27 404.751 480.789 408.244 485.972C409.659 487.951 410.888 491.815 411.078 494.455C411.459 498.792 410.894 499.923 405.335 505.49C399.871 510.962 398.552 511.718 394.121 511.627C383.278 511.729 373.746 498.066 378.17 488.917C380.618 483.824 387.213 478.351 392.304 477.216Z" fill="white"/>
<path d="M1136.33 2105.25L1157.84 2126.72L1166.7 2124.64C1171.51 2123.6 1181.03 2121.24 1187.82 2119.54L1200.07 2116.32L1206.77 2123.95C1210.36 2128.1 1214.32 2132.81 1215.55 2134.41C1217.53 2137.15 1218 2137.05 1222.43 2133.75C1225.07 2131.86 1228.65 2128.27 1230.35 2125.82L1233.55 2121.29L1224.21 2111.97L1214.87 2102.64L1219.58 2097.92L1224.29 2093.21L1233.63 2102.53L1242.87 2111.77L1246.46 2109.5C1250.98 2106.48 1293.09 2064.3 1295.16 2060.72C1296.57 2058.17 1296.2 2057.61 1287.33 2048.75L1277.99 2039.43L1282.6 2034.8L1287.13 2030.27L1292.13 2033.95C1294.86 2036.11 1299.29 2039.98 1302.03 2042.71C1307.69 2048.36 1308.82 2048.17 1316.64 2040.34C1323.33 2033.64 1323.24 2033.17 1311.73 2023.18L1301.63 2014.42L1305.86 1998.3C1308.31 1989.43 1310.56 1979.63 1311.03 1976.7L1311.78 1971.42L1293.57 1953.24C1283.48 1943.16 1273.67 1933.93 1271.78 1932.61L1268.19 1930.35L1252.74 1946.2L1237.39 1962.15L1244.84 1970.15L1252.39 1978.26L1239.86 1990.8L1227.24 2003.45L1218.56 1996.1L1209.88 1988.75L1191.6 2007.06L1173.32 2025.36L1181.34 2033.37L1189.36 2041.38L1176.17 2054.59L1162.99 2067.8L1154.97 2059.79L1146.95 2051.78L1130.93 2067.82L1114.91 2083.86L1136.33 2105.25ZM1290.59 1993.78L1287.86 2006.89L1240 2054.82L1192.14 2102.75L1179.8 2105.5C1173.1 2106.91 1167.35 2107.96 1167.16 2107.77C1166.97 2107.58 1195.24 2078.9 1230 2044.08L1293.31 1980.68L1290.59 1993.78Z" fill="white"/>
<path d="M1228.76 2149.49C1229.42 2150.9 1243.2 2168.62 1245.28 2170.69C1245.75 2171.16 1257.24 2160.21 1271 2146.44L1295.96 2121.44L1285.58 2111.07L1275.2 2100.71L1251.65 2124.3C1233.66 2142.32 1228.19 2148.36 1228.76 2149.49Z" fill="white"/>
<path d="M1286.89 2090.33C1286.79 2090.99 1291.23 2095.98 1296.61 2101.35L1306.32 2111.06L1331.38 2085.96L1356.54 2060.77L1346.26 2051.82C1340.6 2046.92 1335.5 2042.78 1334.75 2042.59C1333.24 2042.21 1286.79 2088.54 1286.89 2090.33Z" fill="white"/>
<path d="M1260.47 2188.5C1263.11 2191.89 1267.07 2196.79 1269.24 2199.52L1273.21 2204.61L1284.14 2193.66L1295.06 2182.72L1285.16 2172.83L1275.25 2162.94L1265.45 2172.75L1255.66 2182.56L1260.47 2188.5Z" fill="white"/>
<path d="M1294.58 2163.39L1304.49 2173.28L1331.34 2146.39L1358.19 2119.5L1348.28 2109.61L1338.37 2099.72L1311.52 2126.61L1284.67 2153.5L1294.58 2163.39Z" fill="white"/>
<path d="M1358.64 2099.23L1368.55 2109.13L1378.91 2098.75L1389.28 2088.37L1386.63 2085.73C1385.12 2084.22 1380.41 2080.08 1376.16 2076.4L1368.24 2069.81L1358.53 2079.53L1348.73 2089.34L1358.64 2099.23Z" fill="white"/>
<path d="M1286.42 2220.06C1288.4 2222.61 1292.36 2227.51 1295.19 2231.09L1300.39 2237.4L1297.28 2242.59C1293.32 2249.38 1292.77 2260.31 1296.07 2267.76C1299.28 2274.92 1306.55 2280.67 1314.37 2282.27L1319.94 2283.49L1320.41 2289.43C1320.6 2292.82 1322.12 2299.04 1323.53 2303.28C1326.18 2310.64 1326.74 2311.39 1344.2 2328.82L1362.13 2346.72L1447.48 2261.8L1532.84 2176.7L1513.87 2158.51C1492.64 2137.88 1489.06 2135.81 1474.92 2135.07C1470.58 2134.88 1467.75 2134.13 1468.03 2133.09C1468.88 2129.6 1464.63 2120.27 1460.38 2116.03C1451.42 2107.08 1436.33 2105.78 1425.87 2112.85L1422.29 2115.31L1411.82 2106.17L1401.35 2097.03L1374.12 2124.3L1346.9 2151.57L1356.8 2161.46L1366.71 2171.35L1361.53 2176.54L1356.35 2181.73L1346.44 2171.84L1336.53 2161.95L1309.78 2188.74L1283.02 2215.54L1286.42 2220.06ZM1441.53 2123.97C1444.08 2123.49 1445.96 2124.25 1448.7 2126.98C1452.95 2131.22 1453.33 2134.99 1449.84 2139.99C1448.43 2141.97 1419.51 2171.31 1385.31 2205.19C1325.67 2264.34 1322.94 2266.89 1319.36 2267.08C1314.46 2267.28 1309.27 2262.28 1309.26 2257.19C1309.26 2253.42 1310.48 2252.19 1373.61 2188.98C1430.32 2132.18 1438.33 2124.54 1441.53 2123.97ZM1468.14 2152.04C1473.51 2150.63 1482.85 2151.66 1485.11 2153.92C1486.25 2155.05 1474.09 2167.6 1413.33 2228.45L1340.31 2301.57L1338.8 2298.75C1335.12 2291.87 1335.49 2284.51 1339.82 2277.34C1341.05 2275.36 1369.12 2246.68 1402.38 2213.56C1461.54 2154.69 1462.96 2153.27 1468.14 2152.04Z" fill="white"/>
<path d="M1914.43 360.859L1935.94 382.339L1944.8 380.258C1949.61 379.217 1959.13 376.853 1965.91 375.151L1978.17 371.936L1984.87 379.568C1988.45 383.714 1992.42 388.425 1993.64 390.027C1995.63 392.759 1996.1 392.665 2000.53 389.362C2003.16 387.474 2006.74 383.889 2008.44 381.436L2011.64 376.908L2002.3 367.581L1992.96 358.254L1997.67 353.537L2002.38 348.819L2011.72 358.146L2020.97 367.379L2024.55 365.113C2029.07 362.093 2071.18 319.918 2073.26 316.334C2074.67 313.787 2074.29 313.222 2065.42 304.366L2056.08 295.039L2060.7 290.416L2065.22 285.887L2070.22 289.56C2072.95 291.727 2077.39 295.589 2080.12 298.321C2085.79 303.974 2086.92 303.784 2094.74 295.953C2101.43 289.254 2101.33 288.783 2089.82 278.798L2079.73 270.037L2083.96 253.912C2086.4 245.048 2088.66 235.241 2089.13 232.318L2089.88 227.037L2071.67 208.855C2061.57 198.774 2051.76 189.542 2049.87 188.223L2046.29 185.963L2030.84 201.814L2015.48 217.759L2022.94 225.767L2030.48 233.87L2017.95 246.419L2005.33 259.062L1996.65 251.714L1987.97 244.367L1969.7 262.671L1951.42 280.975L1959.44 288.983L1967.46 296.991L1954.27 310.2L1941.08 323.409L1933.06 315.401L1925.04 307.394L1909.02 323.433L1893.01 339.473L1914.43 360.859ZM2068.68 249.398L2065.96 262.505L2018.1 310.435L1970.24 358.366L1957.89 361.109C1951.2 362.528 1945.45 363.57 1945.26 363.381C1945.07 363.193 1973.33 334.51 2008.1 299.695L2071.4 236.291L2068.68 249.398Z" fill="white"/>
<path d="M2006.85 405.102C2007.51 406.515 2021.29 424.23 2023.37 426.303C2023.84 426.774 2035.33 415.828 2049.09 402.053L2074.06 377.05L2063.68 366.687L2053.3 356.324L2029.75 379.912C2011.75 397.933 2006.29 403.971 2006.85 405.102Z" fill="white"/>
<path d="M2064.98 345.944C2064.89 346.604 2069.32 351.598 2074.7 356.968L2084.42 366.672L2109.48 341.574L2134.63 316.382L2124.35 307.433C2118.69 302.535 2113.59 298.39 2112.84 298.202C2111.33 297.826 2064.89 344.153 2064.98 345.944Z" fill="white"/>
<path d="M2038.56 444.11C2041.2 447.503 2045.17 452.402 2047.34 455.135L2051.3 460.223L2062.23 449.278L2073.16 438.333L2063.25 428.441L2053.34 418.549L2043.55 428.362L2033.75 438.174L2038.56 444.11Z" fill="white"/>
<path d="M2072.67 419.006L2082.58 428.898L2109.43 402.008L2136.28 375.118L2126.37 365.226L2116.47 355.334L2089.62 382.224L2062.77 409.114L2072.67 419.006Z" fill="white"/>
<path d="M2136.74 354.847L2146.64 364.739L2157.01 354.361L2167.37 343.982L2164.73 341.344C2163.22 339.837 2158.5 335.692 2154.25 332.018L2146.33 325.424L2136.63 335.143L2126.83 344.955L2136.74 354.847Z" fill="white"/>
<path d="M2064.51 475.675C2066.49 478.219 2070.46 483.119 2073.29 486.699L2078.48 493.012L2075.37 498.2C2071.42 504.991 2070.86 515.928 2074.16 523.374C2077.38 530.537 2084.64 536.283 2092.47 537.88L2098.03 539.101L2098.51 545.04C2098.7 548.434 2100.21 554.656 2101.63 558.897C2104.27 566.249 2104.84 567.003 2122.29 584.432L2140.22 602.332L2225.58 517.416L2310.93 432.31L2291.97 414.128C2270.74 393.497 2267.15 391.425 2253.01 390.681C2248.67 390.496 2245.84 389.744 2246.13 388.707C2246.97 385.218 2242.72 375.887 2238.48 371.648C2229.51 362.698 2214.43 361.389 2203.97 368.468L2200.39 370.922L2189.92 361.784L2179.44 352.647L2152.22 379.914L2124.99 407.182L2134.9 417.074L2144.8 426.966L2139.62 432.155L2134.44 437.345L2124.53 427.453L2114.63 417.561L2087.87 444.356L2061.11 471.152L2064.51 475.675ZM2219.63 379.581C2222.17 379.108 2224.06 379.861 2226.79 382.593C2231.04 386.832 2231.42 390.603 2227.94 395.603C2226.52 397.584 2197.6 426.927 2163.4 460.799C2103.77 519.958 2101.03 522.505 2097.45 522.697C2092.55 522.889 2087.36 517.896 2087.36 512.805C2087.35 509.033 2088.58 507.807 2151.7 444.592C2208.41 387.792 2216.42 380.149 2219.63 379.581ZM2246.24 407.657C2251.61 406.239 2260.94 407.269 2263.21 409.53C2264.34 410.661 2252.19 423.209 2191.42 484.066L2118.41 557.188L2116.9 554.361C2113.21 547.481 2113.59 540.127 2117.92 532.958C2119.14 530.977 2147.22 502.295 2180.47 469.177C2239.64 410.302 2241.05 408.887 2246.24 407.657Z" fill="white"/>
</svg>
